<?xml version="1.0" encoding="UTF-8" standalone="no"?>
<!-- Generator: Adobe Illustrator 16.0.0, SVG Export Plug-In . SVG Version: 6.00 Build 0)  -->

<svg
   xmlns:dc="http://purl.org/dc/elements/1.1/"
   xmlns:cc="http://creativecommons.org/ns#"
   xmlns:rdf="http://www.w3.org/1999/02/22-rdf-syntax-ns#"
   xmlns:svg="http://www.w3.org/2000/svg"
   xmlns="http://www.w3.org/2000/svg"
   xmlns:sodipodi="http://sodipodi.sourceforge.net/DTD/sodipodi-0.dtd"
   xmlns:inkscape="http://www.inkscape.org/namespaces/inkscape"
   version="1.1"
   id="Layer_1"
   x="0px"
   y="0px"
   width="1786.9766"
   height="263.24561"
   viewBox="0 0 1786.9766 263.24561"
   enable-background="new 0 0 255.12 165.98"
   xml:space="preserve"
   sodipodi:docname="nana_nameOnly.svg"
   inkscape:label="name"
   inkscape:version="0.92.4 (5da689c313, 2019-01-14)"
   inkscape:export-filename="C:\Users\surrlim\Documents\Nana\Logos\nana_nameOnly.png"
   inkscape:export-xdpi="97.269852"
   inkscape:export-ydpi="97.269852"><metadata
   id="metadata752"><rdf:RDF><cc:Work
       rdf:about=""><dc:format>image/svg+xml</dc:format><dc:type
         rdf:resource="http://purl.org/dc/dcmitype/StillImage" /><dc:title></dc:title></cc:Work></rdf:RDF></metadata><defs
   id="defs750">
	
	
	
</defs><sodipodi:namedview
   pagecolor="#ffffff"
   bordercolor="#666666"
   borderopacity="1"
   objecttolerance="10"
   gridtolerance="10"
   guidetolerance="10"
   inkscape:pageopacity="0"
   inkscape:pageshadow="2"
   inkscape:window-width="1366"
   inkscape:window-height="705"
   id="namedview748"
   showgrid="false"
   inkscape:zoom="0.4036631"
   inkscape:cx="495.18735"
   inkscape:cy="581.70701"
   inkscape:window-x="-8"
   inkscape:window-y="-8"
   inkscape:window-maximized="1"
   inkscape:current-layer="Layer_1" />
<g
   id="g888"
   transform="matrix(11.040329,0,0,11.040329,-509.58847,-1400.8853)"><g
     id="g626">
		<g
   id="g624">
			<g
   id="g622">
				<linearGradient
   id="SVGID_1_"
   gradientUnits="userSpaceOnUse"
   x1="64.984901"
   y1="177.9453"
   x2="217.5508"
   y2="81.806503">
					<stop
   offset="0"
   style="stop-color:#34351A"
   id="stop568" />
					<stop
   offset="0.03"
   style="stop-color:#393A19"
   id="stop570" />
					<stop
   offset="0.08"
   style="stop-color:#F5F6D7"
   id="stop572" />
					<stop
   offset="0.13"
   style="stop-color:#DFDFBC"
   id="stop574" />
					<stop
   offset="0.2"
   style="stop-color:#BF962E"
   id="stop576" />
					<stop
   offset="0.29"
   style="stop-color:#F5D97C"
   id="stop578" />
					<stop
   offset="0.36"
   style="stop-color:#A3822E"
   id="stop580" />
					<stop
   offset="0.4"
   style="stop-color:#544C20"
   id="stop582" />
					<stop
   offset="0.51"
   style="stop-color:#F0C049"
   id="stop584" />
					<stop
   offset="0.6"
   style="stop-color:#D8BE7D"
   id="stop586" />
					<stop
   offset="0.63"
   style="stop-color:#645724"
   id="stop588" />
					<stop
   offset="0.7"
   style="stop-color:#D5BA71"
   id="stop590" />
					<stop
   offset="0.74"
   style="stop-color:#FFFFFF"
   id="stop592" />
					<stop
   offset="0.87"
   style="stop-color:#FBF7EF"
   id="stop594" />
					<stop
   offset="0.91"
   style="stop-color:#B68E2E"
   id="stop596" />
					<stop
   offset="0.97"
   style="stop-color:#584E20"
   id="stop598" />
					<stop
   offset="1"
   style="stop-color:#FFFFFF"
   id="stop600" />
				</linearGradient>
				<path
   d="M 197.546,126.888 H 56.636 c -5.955,0.035 -10.462,5.495 -10.479,11.925 0.017,6.431 4.523,11.884 10.479,11.919 h 140.91 c 5.945,-0.035 10.457,-5.488 10.47,-11.919 -0.013,-6.43 -4.525,-11.89 -10.47,-11.925 z"
   id="path603"
   inkscape:connector-curvature="0"
   style="fill:url(#SVGID_1_)" />
				<radialGradient
   id="SVGID_2_"
   cx="127.0879"
   cy="138.81351"
   r="56.720001"
   gradientUnits="userSpaceOnUse">
					<stop
   offset="0.0056"
   style="stop-color:#FFFFFF"
   id="stop605" />
					<stop
   offset="0.2717"
   style="stop-color:#FCFCFC"
   id="stop607" />
					<stop
   offset="0.4565"
   style="stop-color:#F3F3F3"
   id="stop609" />
					<stop
   offset="0.6166"
   style="stop-color:#E4E4E4"
   id="stop611" />
					<stop
   offset="0.7627"
   style="stop-color:#CECECE"
   id="stop613" />
					<stop
   offset="0.8979"
   style="stop-color:#B2B2B2"
   id="stop615" />
					<stop
   offset="0.9944"
   style="stop-color:#999999"
   id="stop617" />
				</radialGradient>
				<path
   d="m 206.609,138.81 c 0,5.809 -4.061,10.523 -9.069,10.523 H 56.636 c -5.01,0 -9.069,-4.715 -9.069,-10.523 v 0 c 0,-5.809 4.06,-10.516 9.069,-10.516 H 197.54 c 5.009,0 9.069,4.707 9.069,10.516 z"
   id="path620"
   inkscape:connector-curvature="0"
   style="clip-rule:evenodd;fill:url(#SVGID_2_);fill-rule:evenodd" />
			</g>
		</g>
	</g><g
     id="g652">
		<path
   d="m 80.161,134.653 c 0.397,-0.078 0.737,-0.236 1.02,-0.473 0.283,-0.237 0.424,-0.572 0.424,-1.006 0,-0.342 -0.153,-0.637 -0.458,-0.887 -0.306,-0.25 -0.749,-0.375 -1.329,-0.375 -0.932,0 -1.871,0.362 -2.818,1.084 -0.947,0.724 -1.879,1.695 -2.795,2.918 -0.917,1.223 -1.81,2.639 -2.681,4.248 -0.871,1.609 -1.703,3.302 -2.497,5.076 l -0.321,-0.04 c 0.031,-0.224 0.058,-0.453 0.081,-0.69 0.023,-0.236 0.034,-0.466 0.034,-0.689 0,-0.854 -0.077,-1.701 -0.229,-2.543 -0.153,-0.84 -0.329,-1.676 -0.527,-2.503 -0.199,-0.828 -0.378,-1.659 -0.539,-2.493 -0.16,-0.835 -0.256,-1.672 -0.286,-2.514 h -0.046 c -0.352,0.617 -0.745,1.328 -1.18,2.129 -0.436,0.802 -0.913,1.619 -1.432,2.454 -0.52,0.835 -1.092,1.649 -1.718,2.444 -0.626,0.795 -1.306,1.505 -2.039,2.129 -0.733,0.624 -1.523,1.127 -2.371,1.508 -0.848,0.381 -1.761,0.572 -2.738,0.572 -0.413,0 -0.81,-0.057 -1.191,-0.168 -0.381,-0.111 -0.714,-0.276 -0.997,-0.493 -0.282,-0.217 -0.511,-0.476 -0.687,-0.778 -0.175,-0.303 -0.264,-0.645 -0.264,-1.025 0,-0.395 0.126,-0.723 0.378,-0.985 0.252,-0.262 0.592,-0.394 1.02,-0.394 0.336,0 0.611,0.082 0.825,0.246 0.214,0.164 0.321,0.364 0.321,0.601 0,0.513 -0.298,0.821 -0.894,0.927 -0.061,0.564 0.081,0.992 0.424,1.281 0.344,0.289 0.836,0.434 1.478,0.434 0.825,0 1.607,-0.168 2.348,-0.502 0.74,-0.336 1.439,-0.779 2.096,-1.331 0.656,-0.552 1.271,-1.18 1.844,-1.883 0.573,-0.702 1.1,-1.419 1.581,-2.148 0.481,-0.729 0.92,-1.442 1.317,-2.139 0.397,-0.696 0.748,-1.313 1.054,-1.853 l 0.825,-1.498 c 0.092,-0.539 0.225,-0.982 0.401,-1.331 0.175,-0.349 0.363,-0.628 0.561,-0.838 0.199,-0.21 0.393,-0.354 0.584,-0.434 0.191,-0.079 0.339,-0.118 0.447,-0.118 0.152,0 0.229,0.053 0.229,0.158 0,0.053 -0.02,0.105 -0.057,0.157 -0.039,0.053 -0.077,0.132 -0.115,0.236 -0.038,0.105 -0.077,0.257 -0.115,0.454 -0.038,0.197 -0.057,0.459 -0.057,0.788 0,0.67 0.069,1.351 0.206,2.04 0.138,0.689 0.29,1.396 0.458,2.119 0.168,0.723 0.317,1.459 0.447,2.207 0.129,0.75 0.194,1.525 0.194,2.326 0,0.289 -0.023,0.572 -0.068,0.848 h 0.045 c 0.244,-0.525 0.562,-1.159 0.951,-1.902 0.389,-0.742 0.839,-1.523 1.352,-2.346 0.511,-0.82 1.073,-1.636 1.684,-2.443 0.611,-0.809 1.26,-1.531 1.947,-2.169 0.688,-0.638 1.405,-1.156 2.154,-1.558 0.748,-0.4 1.519,-0.601 2.313,-0.601 0.657,0 1.191,0.145 1.604,0.434 0.413,0.289 0.619,0.696 0.619,1.222 0,0.329 -0.084,0.628 -0.252,0.897 -0.168,0.269 -0.389,0.503 -0.664,0.7 -0.275,0.197 -0.581,0.348 -0.917,0.453 -0.336,0.105 -0.665,0.164 -0.985,0.178 v -0.118 z"
   id="path628"
   inkscape:connector-curvature="0" />
		<path
   d="m 83.254,137.985 2.382,-0.119 c -0.137,0.236 -0.336,0.523 -0.596,0.857 -0.26,0.336 -0.542,0.697 -0.848,1.084 -0.306,0.389 -0.615,0.789 -0.928,1.203 -0.313,0.414 -0.6,0.814 -0.859,1.202 -0.26,0.388 -0.47,0.749 -0.63,1.085 -0.16,0.334 -0.24,0.62 -0.24,0.857 0,0.328 0.191,0.492 0.573,0.492 0.366,0 0.862,-0.184 1.489,-0.552 0.627,-0.368 1.283,-0.854 1.97,-1.459 0.29,-0.249 0.584,-0.519 0.882,-0.808 0.298,-0.289 0.584,-0.575 0.859,-0.857 0.275,-0.283 0.527,-0.545 0.756,-0.789 0.229,-0.242 0.413,-0.443 0.55,-0.602 l 0.161,0.079 c -0.397,0.46 -0.855,0.97 -1.375,1.528 -0.52,0.559 -1.146,1.152 -1.878,1.783 -0.733,0.631 -1.455,1.146 -2.165,1.548 -0.71,0.4 -1.417,0.601 -2.119,0.601 -0.489,0 -0.867,-0.107 -1.134,-0.324 -0.267,-0.217 -0.401,-0.483 -0.401,-0.799 0,-0.105 0.008,-0.203 0.023,-0.296 0.015,-0.092 0.038,-0.164 0.069,-0.217 h -0.046 c -0.474,0.46 -1.008,0.848 -1.604,1.163 -0.596,0.315 -1.237,0.473 -1.924,0.473 -0.367,0 -0.68,-0.059 -0.939,-0.177 -0.259,-0.118 -0.47,-0.279 -0.63,-0.483 -0.16,-0.203 -0.279,-0.434 -0.355,-0.689 -0.076,-0.255 -0.115,-0.522 -0.115,-0.799 0,-0.644 0.206,-1.287 0.619,-1.932 0.412,-0.644 0.931,-1.225 1.558,-1.744 0.627,-0.519 1.325,-0.939 2.096,-1.262 0.771,-0.323 1.508,-0.482 2.211,-0.482 0.534,0 0.954,0.098 1.26,0.295 0.306,0.197 0.558,0.506 0.756,0.927 z m -6.873,5.046 c 0,0.382 0.072,0.713 0.218,0.995 0.145,0.283 0.454,0.424 0.928,0.424 0.321,-0.013 0.657,-0.128 1.008,-0.345 0.351,-0.217 0.69,-0.489 1.019,-0.817 0.329,-0.329 0.642,-0.693 0.939,-1.095 0.297,-0.402 0.557,-0.805 0.779,-1.212 0.221,-0.408 0.397,-0.792 0.527,-1.153 0.13,-0.361 0.195,-0.667 0.195,-0.917 0,-0.354 -0.077,-0.631 -0.229,-0.828 -0.153,-0.197 -0.451,-0.295 -0.894,-0.295 -0.352,0 -0.707,0.092 -1.065,0.275 -0.359,0.185 -0.703,0.428 -1.031,0.729 -0.329,0.303 -0.642,0.641 -0.939,1.015 -0.298,0.375 -0.554,0.76 -0.768,1.154 -0.214,0.394 -0.382,0.771 -0.504,1.133 -0.122,0.362 -0.183,0.675 -0.183,0.937 z"
   id="path630"
   inkscape:connector-curvature="0" />
		<path
   d="m 88.729,141.415 c 0.213,-0.236 0.523,-0.572 0.928,-1.006 0.404,-0.434 0.867,-0.86 1.386,-1.281 0.519,-0.42 1.077,-0.788 1.672,-1.104 0.595,-0.316 1.191,-0.473 1.787,-0.473 0.504,0 0.886,0.121 1.146,0.364 0.259,0.243 0.389,0.542 0.389,0.897 0,0.446 -0.164,0.902 -0.492,1.369 -0.329,0.467 -0.691,0.934 -1.088,1.4 -0.397,0.466 -0.76,0.912 -1.088,1.34 -0.329,0.428 -0.493,0.824 -0.493,1.192 0,0.157 0.046,0.286 0.137,0.384 0.092,0.1 0.244,0.148 0.458,0.148 0.213,0 0.569,-0.141 1.065,-0.424 0.496,-0.282 1.165,-0.805 2.005,-1.566 0.656,-0.605 1.26,-1.193 1.81,-1.765 0.55,-0.572 0.962,-1.002 1.237,-1.292 l 0.229,0.1 c -0.397,0.407 -0.886,0.913 -1.466,1.518 -0.581,0.604 -1.199,1.202 -1.855,1.793 -0.794,0.724 -1.47,1.236 -2.027,1.538 -0.558,0.302 -1.134,0.454 -1.73,0.454 -0.581,0 -1.008,-0.139 -1.283,-0.414 -0.275,-0.276 -0.413,-0.592 -0.413,-0.947 0,-0.445 0.164,-0.906 0.493,-1.379 0.328,-0.474 0.691,-0.937 1.088,-1.391 0.397,-0.453 0.759,-0.883 1.088,-1.291 0.329,-0.406 0.493,-0.762 0.493,-1.064 0,-0.145 -0.054,-0.262 -0.16,-0.354 -0.107,-0.092 -0.268,-0.138 -0.481,-0.138 -0.306,0 -0.664,0.121 -1.077,0.365 -0.412,0.242 -0.848,0.559 -1.306,0.945 -0.458,0.389 -0.924,0.828 -1.397,1.32 -0.474,0.493 -0.92,0.986 -1.34,1.479 -0.42,0.493 -0.798,0.97 -1.134,1.43 -0.336,0.46 -0.604,0.854 -0.802,1.183 l -2.314,0.06 c 0.81,-1.156 1.623,-2.303 2.44,-3.44 0.817,-1.136 1.623,-2.303 2.417,-3.499 l 2.612,-0.078 -2.978,3.588 z"
   id="path632"
   inkscape:connector-curvature="0" />
		<path
   d="m 106.163,137.985 2.382,-0.119 c -0.137,0.236 -0.336,0.523 -0.596,0.857 -0.26,0.336 -0.542,0.697 -0.848,1.084 -0.306,0.389 -0.615,0.789 -0.928,1.203 -0.313,0.414 -0.6,0.814 -0.859,1.202 -0.26,0.388 -0.47,0.749 -0.63,1.085 -0.16,0.334 -0.24,0.62 -0.24,0.857 0,0.328 0.191,0.492 0.573,0.492 0.366,0 0.862,-0.184 1.489,-0.552 0.627,-0.368 1.283,-0.854 1.97,-1.459 0.29,-0.249 0.584,-0.519 0.882,-0.808 0.298,-0.289 0.584,-0.575 0.859,-0.857 0.275,-0.283 0.527,-0.545 0.756,-0.789 0.229,-0.242 0.413,-0.443 0.55,-0.602 l 0.161,0.079 c -0.397,0.46 -0.855,0.97 -1.375,1.528 -0.52,0.559 -1.146,1.152 -1.878,1.783 -0.733,0.631 -1.455,1.146 -2.165,1.548 -0.71,0.4 -1.417,0.601 -2.119,0.601 -0.489,0 -0.867,-0.107 -1.134,-0.324 -0.267,-0.217 -0.401,-0.483 -0.401,-0.799 0,-0.105 0.008,-0.203 0.023,-0.296 0.015,-0.092 0.038,-0.164 0.069,-0.217 h -0.046 c -0.474,0.46 -1.008,0.848 -1.604,1.163 -0.596,0.315 -1.237,0.473 -1.924,0.473 -0.367,0 -0.68,-0.059 -0.939,-0.177 -0.259,-0.118 -0.47,-0.279 -0.63,-0.483 -0.16,-0.203 -0.279,-0.434 -0.355,-0.689 -0.076,-0.255 -0.115,-0.522 -0.115,-0.799 0,-0.644 0.206,-1.287 0.619,-1.932 0.412,-0.644 0.931,-1.225 1.558,-1.744 0.627,-0.519 1.325,-0.939 2.096,-1.262 0.771,-0.323 1.508,-0.482 2.211,-0.482 0.534,0 0.954,0.098 1.26,0.295 0.306,0.197 0.558,0.506 0.756,0.927 z m -6.873,5.046 c 0,0.382 0.072,0.713 0.218,0.995 0.145,0.283 0.454,0.424 0.928,0.424 0.321,-0.013 0.657,-0.128 1.008,-0.345 0.351,-0.217 0.69,-0.489 1.019,-0.817 0.329,-0.329 0.642,-0.693 0.939,-1.095 0.297,-0.402 0.557,-0.805 0.779,-1.212 0.221,-0.408 0.397,-0.792 0.527,-1.153 0.13,-0.361 0.195,-0.667 0.195,-0.917 0,-0.354 -0.077,-0.631 -0.229,-0.828 -0.153,-0.197 -0.451,-0.295 -0.894,-0.295 -0.352,0 -0.707,0.092 -1.065,0.275 -0.359,0.185 -0.703,0.428 -1.031,0.729 -0.329,0.303 -0.642,0.641 -0.939,1.015 -0.298,0.375 -0.554,0.76 -0.768,1.154 -0.214,0.394 -0.382,0.771 -0.504,1.133 -0.122,0.362 -0.183,0.675 -0.183,0.937 z"
   id="path634"
   inkscape:connector-curvature="0" />
		<path
   d="m 127.582,133.411 c -0.076,0.119 -0.134,0.264 -0.172,0.434 -0.038,0.172 -0.057,0.329 -0.057,0.474 0,0.421 0.152,0.753 0.458,0.995 0.306,0.244 0.694,0.365 1.168,0.365 0.489,0 0.958,-0.105 1.409,-0.315 0.45,-0.21 0.848,-0.483 1.191,-0.818 0.343,-0.335 0.614,-0.71 0.812,-1.124 0.199,-0.413 0.299,-0.824 0.299,-1.231 0,-0.288 -0.073,-0.522 -0.219,-0.7 -0.145,-0.177 -0.328,-0.314 -0.549,-0.414 -0.222,-0.098 -0.451,-0.167 -0.688,-0.206 -0.236,-0.04 -0.447,-0.06 -0.63,-0.06 -0.794,0 -1.627,0.151 -2.497,0.453 -0.871,0.303 -1.73,0.713 -2.578,1.232 -0.848,0.519 -1.652,1.127 -2.416,1.823 -0.764,0.696 -1.436,1.446 -2.016,2.247 -0.581,0.802 -1.042,1.63 -1.386,2.484 -0.344,0.854 -0.515,1.695 -0.515,2.522 0,0.486 0.064,0.931 0.194,1.331 0.13,0.4 0.325,0.748 0.584,1.045 0.259,0.295 0.58,0.525 0.962,0.689 0.382,0.164 0.825,0.246 1.329,0.246 0.656,0 1.298,-0.125 1.924,-0.375 0.627,-0.248 1.188,-0.588 1.684,-1.015 0.496,-0.427 0.895,-0.919 1.191,-1.478 0.299,-0.559 0.447,-1.141 0.447,-1.745 0,-0.538 -0.13,-0.992 -0.39,-1.36 -0.26,-0.367 -0.726,-0.552 -1.397,-0.552 -0.352,0 -0.688,0.079 -1.008,0.236 -0.32,0.157 -0.627,0.353 -0.916,0.581 -0.291,0.23 -0.551,0.474 -0.779,0.73 -0.229,0.256 -0.428,0.489 -0.596,0.699 l -0.229,-0.099 c 0.259,-0.341 0.541,-0.667 0.848,-0.976 0.305,-0.309 0.637,-0.588 0.996,-0.838 0.358,-0.25 0.752,-0.446 1.18,-0.592 0.428,-0.145 0.9,-0.217 1.42,-0.217 0.795,0 1.443,0.207 1.947,0.621 0.504,0.414 0.756,0.957 0.756,1.627 0,0.801 -0.232,1.512 -0.698,2.129 -0.466,0.617 -1.069,1.137 -1.81,1.557 -0.741,0.421 -1.566,0.742 -2.475,0.967 -0.908,0.223 -1.807,0.334 -2.691,0.334 -1.527,0 -2.711,-0.374 -3.551,-1.123 -0.84,-0.749 -1.26,-1.773 -1.26,-3.075 0,-0.841 0.206,-1.683 0.619,-2.522 0.412,-0.842 0.966,-1.646 1.661,-2.416 0.695,-0.768 1.504,-1.48 2.428,-2.139 0.924,-0.656 1.898,-1.229 2.922,-1.715 1.022,-0.485 2.061,-0.867 3.115,-1.143 1.054,-0.275 2.062,-0.414 3.023,-0.414 0.443,0 0.871,0.039 1.283,0.118 0.412,0.079 0.779,0.207 1.1,0.384 0.32,0.178 0.576,0.418 0.768,0.721 0.19,0.302 0.286,0.676 0.286,1.123 0,0.486 -0.138,0.924 -0.412,1.311 -0.274,0.389 -0.63,0.713 -1.065,0.977 -0.436,0.263 -0.92,0.467 -1.455,0.61 -0.534,0.146 -1.053,0.217 -1.558,0.217 -0.321,0 -0.63,-0.032 -0.928,-0.099 -0.298,-0.065 -0.562,-0.168 -0.79,-0.305 -0.229,-0.139 -0.416,-0.316 -0.562,-0.533 -0.146,-0.217 -0.218,-0.476 -0.218,-0.778 0,-0.184 0.031,-0.368 0.092,-0.552 0.061,-0.184 0.122,-0.322 0.184,-0.414 z"
   id="path636"
   inkscape:connector-curvature="0" />
		<path
   d="m 144.122,139.7 c -0.306,0.342 -0.669,0.65 -1.089,0.926 -0.42,0.276 -0.881,0.414 -1.385,0.414 -0.352,0 -0.657,-0.065 -0.917,-0.197 -0.26,-0.131 -0.497,-0.314 -0.71,-0.552 -0.184,0.657 -0.485,1.278 -0.905,1.862 -0.42,0.586 -0.928,1.098 -1.523,1.538 -0.595,0.44 -1.26,0.788 -1.993,1.045 -0.732,0.257 -1.496,0.384 -2.291,0.384 -0.84,0 -1.512,-0.207 -2.016,-0.621 -0.504,-0.414 -0.756,-0.981 -0.756,-1.705 0,-0.695 0.206,-1.363 0.618,-2 0.413,-0.637 0.946,-1.195 1.604,-1.676 0.656,-0.479 1.381,-0.86 2.176,-1.143 0.794,-0.283 1.572,-0.424 2.337,-0.424 0.825,0 1.474,0.189 1.947,0.571 0.473,0.382 0.763,0.841 0.87,1.38 0.076,0.395 0.248,0.709 0.516,0.945 0.268,0.237 0.615,0.355 1.043,0.355 0.412,0 0.801,-0.105 1.168,-0.315 0.366,-0.21 0.756,-0.525 1.168,-0.946 z m -10.653,5.184 c 0.383,0 0.764,-0.111 1.146,-0.335 0.381,-0.224 0.748,-0.513 1.1,-0.867 0.351,-0.354 0.676,-0.755 0.973,-1.202 0.299,-0.447 0.559,-0.895 0.779,-1.341 0.22,-0.446 0.393,-0.874 0.516,-1.281 0.122,-0.407 0.184,-0.749 0.184,-1.024 0,-0.328 -0.08,-0.585 -0.24,-0.77 -0.161,-0.184 -0.417,-0.275 -0.768,-0.275 -0.383,0 -0.764,0.111 -1.146,0.335 -0.381,0.224 -0.748,0.513 -1.1,0.867 -0.352,0.354 -0.676,0.756 -0.973,1.202 -0.299,0.447 -0.559,0.895 -0.779,1.341 -0.222,0.446 -0.394,0.874 -0.516,1.281 -0.123,0.407 -0.184,0.749 -0.184,1.024 0,0.329 0.08,0.586 0.24,0.77 0.161,0.183 0.416,0.275 0.768,0.275 z"
   id="path638"
   inkscape:connector-curvature="0" />
		<path
   d="m 145.199,144.746 c 0.778,-0.145 1.5,-0.392 2.164,-0.739 0.664,-0.347 1.287,-0.756 1.867,-1.223 0.58,-0.466 1.126,-0.972 1.639,-1.518 0.511,-0.545 1.011,-1.094 1.5,-1.646 l 0.184,0.118 c -0.611,0.684 -1.223,1.35 -1.833,2 -0.611,0.651 -1.279,1.227 -2.005,1.726 -0.725,0.499 -1.52,0.9 -2.383,1.202 -0.862,0.303 -1.852,0.453 -2.967,0.453 -0.396,0 -0.789,-0.036 -1.18,-0.107 -0.389,-0.072 -0.74,-0.191 -1.053,-0.355 -0.313,-0.164 -0.565,-0.381 -0.757,-0.65 -0.19,-0.27 -0.286,-0.602 -0.286,-0.996 0,-0.209 0.034,-0.42 0.104,-0.63 0.068,-0.21 0.172,-0.401 0.309,-0.571 0.138,-0.172 0.31,-0.312 0.516,-0.424 0.206,-0.112 0.447,-0.168 0.722,-0.168 0.351,0 0.622,0.086 0.813,0.256 0.19,0.172 0.286,0.368 0.286,0.592 0,0.275 -0.092,0.486 -0.274,0.631 -0.184,0.145 -0.398,0.217 -0.643,0.217 -0.198,0 -0.365,-0.033 -0.504,-0.099 -0.076,0.118 -0.141,0.246 -0.194,0.384 -0.054,0.139 -0.08,0.279 -0.08,0.424 0,0.369 0.165,0.67 0.493,0.907 0.328,0.236 0.713,0.354 1.156,0.354 0.275,0 0.554,-0.039 0.836,-0.118 0.283,-0.079 0.535,-0.193 0.756,-0.345 0.222,-0.15 0.401,-0.332 0.539,-0.542 0.137,-0.21 0.206,-0.44 0.206,-0.69 0,-0.342 -0.096,-0.653 -0.286,-0.936 -0.191,-0.283 -0.401,-0.556 -0.631,-0.818 -0.229,-0.263 -0.438,-0.529 -0.629,-0.799 -0.191,-0.27 -0.287,-0.555 -0.287,-0.857 0,-0.367 0.1,-0.689 0.298,-0.965 0.198,-0.277 0.458,-0.51 0.779,-0.701 0.32,-0.189 0.679,-0.331 1.077,-0.424 0.396,-0.091 0.801,-0.137 1.213,-0.137 0.734,0 1.348,0.135 1.845,0.403 0.496,0.27 0.745,0.654 0.745,1.153 0,0.381 -0.146,0.693 -0.436,0.937 -0.291,0.243 -0.657,0.364 -1.1,0.364 -0.138,0 -0.264,-0.01 -0.379,-0.029 -0.113,-0.02 -0.209,-0.043 -0.285,-0.068 0.168,-0.264 0.285,-0.523 0.354,-0.779 0.069,-0.256 0.103,-0.51 0.103,-0.759 0,-0.263 -0.088,-0.493 -0.263,-0.69 -0.176,-0.197 -0.439,-0.295 -0.79,-0.295 -0.428,0 -0.756,0.115 -0.985,0.345 -0.229,0.23 -0.344,0.516 -0.344,0.857 0,0.368 0.095,0.693 0.286,0.976 0.191,0.283 0.4,0.555 0.631,0.818 0.229,0.263 0.438,0.539 0.629,0.828 0.191,0.289 0.287,0.631 0.287,1.024 0,0.25 -0.051,0.493 -0.149,0.729 -0.098,0.236 -0.233,0.447 -0.401,0.631 -0.168,0.184 -0.354,0.338 -0.561,0.463 -0.207,0.125 -0.424,0.207 -0.652,0.246 z"
   id="path640"
   inkscape:connector-curvature="0" />
		<path
   d="m 158.486,141.139 c 0.289,-0.315 0.633,-0.681 1.031,-1.094 0.396,-0.414 0.828,-0.806 1.294,-1.173 0.466,-0.367 0.954,-0.68 1.466,-0.937 0.512,-0.257 1.02,-0.384 1.523,-0.384 0.488,0 0.883,0.131 1.18,0.394 0.299,0.263 0.447,0.565 0.447,0.907 0,0.447 -0.168,0.903 -0.504,1.369 -0.336,0.467 -0.711,0.93 -1.123,1.391 -0.412,0.459 -0.787,0.906 -1.123,1.34 -0.336,0.434 -0.504,0.828 -0.504,1.183 0,0.146 0.039,0.267 0.115,0.364 0.076,0.1 0.198,0.148 0.366,0.148 0.626,0 1.649,-0.611 3.069,-1.833 0.581,-0.499 1.15,-1.028 1.707,-1.587 0.558,-0.559 1.043,-1.067 1.455,-1.527 l 0.184,0.078 c -0.184,0.197 -0.394,0.421 -0.631,0.67 -0.236,0.25 -0.492,0.517 -0.768,0.799 -0.274,0.283 -0.568,0.575 -0.881,0.877 -0.313,0.303 -0.631,0.592 -0.951,0.867 -0.428,0.369 -0.817,0.681 -1.168,0.938 -0.352,0.256 -0.676,0.463 -0.975,0.62 -0.297,0.157 -0.58,0.272 -0.848,0.345 -0.267,0.072 -0.537,0.109 -0.812,0.109 -0.535,0 -0.951,-0.129 -1.248,-0.385 -0.299,-0.256 -0.447,-0.582 -0.447,-0.977 0,-0.42 0.168,-0.873 0.504,-1.359 0.336,-0.486 0.71,-0.959 1.123,-1.42 0.412,-0.459 0.785,-0.89 1.122,-1.291 0.335,-0.4 0.504,-0.726 0.504,-0.976 0,-0.184 -0.062,-0.325 -0.183,-0.423 -0.123,-0.1 -0.268,-0.148 -0.436,-0.148 -0.321,0 -0.691,0.128 -1.111,0.385 -0.42,0.256 -0.859,0.588 -1.317,0.995 -0.458,0.407 -0.913,0.86 -1.363,1.36 -0.45,0.499 -0.878,0.998 -1.282,1.498 -0.405,0.499 -0.764,0.965 -1.077,1.399 -0.313,0.434 -0.562,0.788 -0.745,1.064 l -2.428,0.079 c 0.52,-0.71 1.027,-1.383 1.523,-2.021 0.496,-0.637 0.939,-1.222 1.328,-1.754 0.391,-0.532 0.703,-1.002 0.939,-1.409 0.236,-0.407 0.355,-0.729 0.355,-0.966 0,-0.158 -0.054,-0.303 -0.16,-0.434 -0.107,-0.131 -0.275,-0.197 -0.504,-0.197 -0.321,0 -0.691,0.128 -1.111,0.385 -0.42,0.256 -0.859,0.588 -1.317,0.995 -0.458,0.407 -0.921,0.86 -1.386,1.36 -0.467,0.499 -0.905,0.998 -1.317,1.498 -0.413,0.499 -0.779,0.965 -1.1,1.399 -0.321,0.434 -0.573,0.788 -0.757,1.064 l -2.312,0.079 c 0.84,-1.156 1.672,-2.311 2.496,-3.46 0.825,-1.149 1.635,-2.323 2.429,-3.519 l 2.681,-0.118 -3.047,3.587 0.045,0.04 c 0.321,-0.315 0.684,-0.69 1.089,-1.124 0.404,-0.434 0.844,-0.848 1.317,-1.241 0.473,-0.395 0.98,-0.729 1.523,-1.005 0.541,-0.277 1.118,-0.414 1.729,-0.414 0.427,0 0.79,0.098 1.088,0.295 0.298,0.197 0.446,0.493 0.446,0.887 0,0.185 -0.037,0.382 -0.113,0.592 -0.077,0.211 -0.172,0.418 -0.287,0.621 -0.114,0.203 -0.244,0.407 -0.389,0.611 -0.146,0.203 -0.279,0.385 -0.401,0.541 z"
   id="path642"
   inkscape:connector-curvature="0" />
		<path
   d="m 178.508,139.641 c -0.473,0.552 -0.98,1.098 -1.523,1.636 -0.542,0.539 -1.188,1.104 -1.936,1.695 -1.054,0.815 -2.065,1.377 -3.035,1.686 -0.971,0.309 -1.883,0.463 -2.738,0.463 -0.87,0 -1.557,-0.223 -2.062,-0.67 -0.504,-0.446 -0.756,-1.025 -0.756,-1.734 0,-0.631 0.222,-1.255 0.665,-1.873 0.442,-0.617 1,-1.169 1.672,-1.655 0.672,-0.486 1.408,-0.88 2.211,-1.183 0.801,-0.303 1.561,-0.453 2.279,-0.453 0.656,0 1.168,0.107 1.535,0.324 0.366,0.217 0.549,0.523 0.549,0.917 0,0.315 -0.125,0.604 -0.377,0.867 -0.252,0.263 -0.577,0.5 -0.975,0.71 -0.396,0.211 -0.844,0.395 -1.34,0.552 -0.496,0.157 -0.988,0.296 -1.478,0.414 -0.49,0.118 -0.947,0.217 -1.374,0.296 -0.428,0.078 -0.779,0.145 -1.055,0.197 -0.076,0.263 -0.114,0.499 -0.114,0.709 0,0.565 0.184,1.025 0.55,1.38 0.367,0.354 0.878,0.532 1.535,0.532 0.641,0 1.348,-0.164 2.119,-0.492 0.771,-0.328 1.547,-0.809 2.325,-1.439 0.596,-0.486 1.169,-0.996 1.718,-1.527 0.551,-0.533 1.031,-1.028 1.443,-1.488 z m -4.971,-1.341 c 0,-0.184 -0.058,-0.314 -0.172,-0.394 -0.115,-0.079 -0.264,-0.118 -0.447,-0.118 -0.381,0 -0.794,0.138 -1.236,0.414 -0.443,0.275 -0.859,0.613 -1.249,1.015 -0.39,0.402 -0.733,0.821 -1.03,1.262 -0.299,0.44 -0.493,0.825 -0.584,1.153 0.625,-0.105 1.221,-0.279 1.786,-0.522 0.565,-0.243 1.065,-0.519 1.501,-0.828 0.436,-0.309 0.782,-0.638 1.042,-0.985 0.26,-0.347 0.389,-0.681 0.389,-0.997 z"
   id="path644"
   inkscape:connector-curvature="0" />
		<path
   d="m 176.928,138.222 0.16,-0.355 h 1.764 l 1.719,-2.483 2.474,-0.079 -1.901,2.562 h 2.909 l -0.206,0.355 h -2.955 c -0.688,0.973 -1.268,1.791 -1.741,2.454 -0.473,0.663 -0.852,1.216 -1.134,1.655 -0.283,0.441 -0.489,0.792 -0.619,1.055 -0.129,0.264 -0.194,0.493 -0.194,0.689 0,0.172 0.054,0.31 0.16,0.414 0.106,0.105 0.26,0.158 0.458,0.158 0.382,0 0.886,-0.168 1.512,-0.502 0.627,-0.336 1.299,-0.799 2.017,-1.391 0.489,-0.42 1.022,-0.913 1.604,-1.479 0.581,-0.564 1.122,-1.137 1.627,-1.715 l 0.138,0.099 c -0.352,0.395 -0.795,0.874 -1.329,1.438 -0.534,0.566 -1.122,1.125 -1.765,1.676 -0.352,0.303 -0.713,0.589 -1.088,0.857 -0.374,0.27 -0.752,0.506 -1.134,0.71 -0.382,0.204 -0.756,0.364 -1.122,0.483 -0.367,0.118 -0.727,0.178 -1.077,0.178 -0.489,0 -0.917,-0.096 -1.282,-0.287 -0.367,-0.189 -0.551,-0.521 -0.551,-0.994 0,-0.342 0.084,-0.693 0.252,-1.055 0.168,-0.362 0.401,-0.76 0.699,-1.193 0.298,-0.433 0.645,-0.913 1.042,-1.439 0.397,-0.525 0.825,-1.129 1.283,-1.812 h -1.72 z"
   id="path646"
   inkscape:connector-curvature="0" />
		<path
   d="m 187.74,137.866 c -0.719,0.973 -1.336,1.805 -1.855,2.494 -0.519,0.689 -0.943,1.277 -1.271,1.764 -0.328,0.487 -0.572,0.885 -0.733,1.193 -0.16,0.309 -0.24,0.562 -0.24,0.758 0,0.158 0.034,0.287 0.103,0.385 0.069,0.099 0.172,0.148 0.31,0.148 0.306,0 0.737,-0.151 1.294,-0.453 0.559,-0.303 1.257,-0.822 2.097,-1.558 0.336,-0.302 0.665,-0.602 0.985,-0.897 0.32,-0.295 0.622,-0.581 0.904,-0.857 0.283,-0.275 0.535,-0.525 0.756,-0.748 0.222,-0.225 0.401,-0.401 0.539,-0.533 l 0.206,0.119 c -0.183,0.21 -0.409,0.449 -0.676,0.719 -0.268,0.27 -0.554,0.553 -0.859,0.848 -0.306,0.296 -0.618,0.588 -0.938,0.877 -0.321,0.289 -0.635,0.565 -0.939,0.828 -0.887,0.762 -1.646,1.295 -2.279,1.597 -0.635,0.302 -1.219,0.454 -1.753,0.454 -0.505,0 -0.894,-0.119 -1.169,-0.355 -0.274,-0.236 -0.412,-0.545 -0.412,-0.926 0,-0.264 0.058,-0.536 0.172,-0.818 0.115,-0.283 0.31,-0.635 0.584,-1.055 0.275,-0.42 0.642,-0.943 1.1,-1.567 0.459,-0.624 1.031,-1.396 1.719,-2.315 z m 1.328,-4.375 c 0.291,0 0.547,0.092 0.768,0.275 0.222,0.184 0.332,0.4 0.332,0.65 0,0.264 -0.121,0.503 -0.365,0.72 -0.245,0.217 -0.52,0.325 -0.825,0.325 -0.337,0 -0.626,-0.076 -0.87,-0.227 -0.245,-0.151 -0.367,-0.378 -0.367,-0.68 0,-0.303 0.133,-0.556 0.4,-0.76 0.267,-0.201 0.576,-0.303 0.927,-0.303 z"
   id="path648"
   inkscape:connector-curvature="0" />
		<path
   d="m 200.134,139.72 c -0.565,0.592 -1.177,1.205 -1.833,1.843 -0.656,0.638 -1.363,1.22 -2.119,1.745 -0.756,0.525 -1.565,0.959 -2.428,1.301 -0.863,0.342 -1.775,0.512 -2.738,0.512 -0.916,0 -1.619,-0.213 -2.107,-0.641 -0.488,-0.426 -0.732,-1.055 -0.732,-1.882 0,-0.631 0.213,-1.249 0.641,-1.853 0.428,-0.605 0.978,-1.145 1.65,-1.617 0.672,-0.473 1.412,-0.854 2.222,-1.143 0.81,-0.289 1.596,-0.434 2.359,-0.434 0.702,0 1.261,0.121 1.673,0.364 0.412,0.243 0.618,0.542 0.618,0.897 0,0.249 -0.058,0.476 -0.172,0.68 -0.114,0.203 -0.264,0.374 -0.446,0.512 -0.184,0.139 -0.39,0.244 -0.619,0.316 -0.229,0.072 -0.458,0.107 -0.688,0.107 -0.198,0 -0.374,-0.013 -0.526,-0.039 0.106,-0.303 0.222,-0.611 0.343,-0.926 0.123,-0.316 0.184,-0.631 0.184,-0.947 0,-0.223 -0.061,-0.4 -0.184,-0.531 -0.121,-0.132 -0.289,-0.197 -0.504,-0.197 -0.396,0 -0.848,0.135 -1.352,0.404 -0.504,0.269 -0.977,0.631 -1.42,1.084 -0.443,0.453 -0.816,0.973 -1.123,1.557 -0.305,0.585 -0.457,1.193 -0.457,1.824 0,0.499 0.175,0.923 0.526,1.271 0.351,0.348 0.84,0.521 1.466,0.521 0.748,0 1.493,-0.178 2.234,-0.532 0.74,-0.354 1.443,-0.784 2.107,-1.291 0.664,-0.506 1.271,-1.031 1.821,-1.577 0.55,-0.545 1.015,-1.016 1.397,-1.409 z"
   id="path650"
   inkscape:connector-curvature="0" />
	</g></g>
</svg>