<?xml version="1.0" encoding="UTF-8" standalone="no"?>
<!-- Generator: Adobe Illustrator 16.0.0, SVG Export Plug-In . SVG Version: 6.00 Build 0)  -->

<svg
   xmlns:dc="http://purl.org/dc/elements/1.1/"
   xmlns:cc="http://creativecommons.org/ns#"
   xmlns:rdf="http://www.w3.org/1999/02/22-rdf-syntax-ns#"
   xmlns:svg="http://www.w3.org/2000/svg"
   xmlns="http://www.w3.org/2000/svg"
   xmlns:sodipodi="http://sodipodi.sourceforge.net/DTD/sodipodi-0.dtd"
   xmlns:inkscape="http://www.inkscape.org/namespaces/inkscape"
   version="1.1"
   id="Layer_1"
   x="0px"
   y="0px"
   width="101.58"
   height="101.58"
   viewBox="0 0 101.58001 101.58001"
   enable-background="new 0 0 255.12 165.98"
   xml:space="preserve"
   sodipodi:docname="nana_face.svg"
   inkscape:version="0.92.4 (5da689c313, 2019-01-14)"><metadata
   id="metadata186"><rdf:RDF><cc:Work
       rdf:about=""><dc:format>image/svg+xml</dc:format><dc:type
         rdf:resource="http://purl.org/dc/dcmitype/StillImage" /><dc:title></dc:title></cc:Work></rdf:RDF></metadata><defs
   id="defs184">
	
	
	

		<linearGradient
   id="SVGID_3_"
   gradientUnits="userSpaceOnUse"
   x1="72.045898"
   y1="70.291"
   x2="182.1299"
   y2="70.291"
   gradientTransform="translate(-46.157,-15.249001)">
			<stop
   offset="0"
   style="stop-color:#34351A"
   id="stop88" />
			<stop
   offset="0.03"
   style="stop-color:#393A19"
   id="stop90" />
			<stop
   offset="0.08"
   style="stop-color:#F5F6D7"
   id="stop92" />
			<stop
   offset="0.13"
   style="stop-color:#DFDFBC"
   id="stop94" />
			<stop
   offset="0.2"
   style="stop-color:#BF962E"
   id="stop96" />
			<stop
   offset="0.29"
   style="stop-color:#F5D97C"
   id="stop98" />
			<stop
   offset="0.36"
   style="stop-color:#A3822E"
   id="stop100" />
			<stop
   offset="0.4"
   style="stop-color:#544C20"
   id="stop102" />
			<stop
   offset="0.51"
   style="stop-color:#F0C049"
   id="stop104" />
			<stop
   offset="0.6"
   style="stop-color:#D8BE7D"
   id="stop106" />
			<stop
   offset="0.63"
   style="stop-color:#645724"
   id="stop108" />
			<stop
   offset="0.7"
   style="stop-color:#D5BA71"
   id="stop110" />
			<stop
   offset="0.74"
   style="stop-color:#FFFFFF"
   id="stop112" />
			<stop
   offset="0.87"
   style="stop-color:#FBF7EF"
   id="stop114" />
			<stop
   offset="0.91"
   style="stop-color:#B68E2E"
   id="stop116" />
			<stop
   offset="0.97"
   style="stop-color:#584E20"
   id="stop118" />
			<stop
   offset="1"
   style="stop-color:#FFFFFF"
   id="stop120" />
		</linearGradient>
		
		
		
	</defs><sodipodi:namedview
   pagecolor="#ffffff"
   bordercolor="#666666"
   borderopacity="1"
   objecttolerance="10"
   gridtolerance="10"
   guidetolerance="10"
   inkscape:pageopacity="0"
   inkscape:pageshadow="2"
   inkscape:window-width="1307"
   inkscape:window-height="680"
   id="namedview182"
   showgrid="false"
   inkscape:zoom="2.2264033"
   inkscape:cx="33.301202"
   inkscape:cy="64.944916"
   inkscape:window-x="0"
   inkscape:window-y="0"
   inkscape:window-maximized="0"
   inkscape:current-layer="Layer_1" />
<g
   id="g363"
   transform="translate(-30.139,-4.2519989)"><circle
     style="fill:#ffffff"
     id="circle125"
     r="50.790001"
     cy="55.042"
     cx="80.929001" /><g
     transform="translate(-46.157,-15.249001)"
     id="g175">
			<path
   style="fill:none"
   inkscape:connector-curvature="0"
   id="path127"
   d="m 159.629,53.805 -2.385,-2.993 c -2.388,-2.994 -4.773,-6.183 -6.402,-8.787 -0.187,-0.064 -0.315,-0.064 -0.315,-0.064 l -0.752,-0.13 -0.315,-0.714 c -0.188,-0.457 -4.956,-11.388 -19.332,-11.388 -0.626,0 -1.256,0 -1.882,0.066 -15.065,0.975 -31.698,8.003 -33.267,24.791 -1.506,15.941 12.366,36.829 18.642,42.229 1.947,1.692 4.519,3.578 7.094,5.334 -0.312,-0.519 -0.63,-1.038 -0.881,-1.494 l -4.393,-8.719 5.524,5.92 c -0.314,-0.453 -0.692,-0.912 -0.943,-1.365 -0.312,-0.521 -0.689,-1.041 -1.067,-1.692 l -0.25,-0.39 0.063,-0.457 c 0.629,-6.83 4.519,-15.812 9.603,-18.478 1.947,-1.043 4.958,-1.887 8.221,-2.798 0.816,-0.262 1.697,-0.457 2.513,-0.716 l 6.4,-1.953 -5.147,4.361 c -0.185,0.129 -0.375,0.323 -0.563,0.52 1.82,-0.846 3.515,-1.757 4.896,-2.733 1.631,-1.171 3.201,-2.603 4.519,-4.099 0.128,-0.131 0.251,-0.327 0.315,-0.456 l 0.123,-0.195 0.062,-0.13 0.127,-0.065 c 0.439,-0.325 0.756,-0.716 1.006,-1.041 1.945,-2.797 2.887,-5.012 3.322,-6.443 l 2.075,-6.766 0.311,3.708 2.075,1.106 c 2.257,1.237 3.7,3.188 4.079,5.661 0.25,1.498 0.312,3.058 0.25,4.62 0.941,-2.278 1.634,-5.14 1.443,-8.265 -1.066,-1.495 -2.824,-3.577 -4.769,-5.985 z m -29.877,4.555 c -1.698,1.886 -3.702,2.342 -5.965,2.082 5.084,3.252 0.755,11.777 0.755,11.777 -0.629,-2.277 -5.022,-2.861 -6.152,-5.466 -0.438,-1.042 -0.377,-2.407 -0.188,-3.709 -0.628,1.432 -1.695,2.667 -3.389,2.603 -3.829,-0.065 -5.775,0.261 -5.712,1.888 0,0 -2.385,-5.269 -0.252,-7.678 0.628,-0.652 1.259,-1.17 1.946,-1.496 -0.187,-0.13 -0.376,-0.261 -0.564,-0.39 -2.637,-2.018 -3.265,-6.898 -3.265,-6.898 0.879,0.913 3.703,-0.259 7.469,0.652 -0.063,-0.587 0.063,-1.107 0.44,-1.563 2.26,-2.667 4.896,-4.684 4.329,-6.636 0,0 3.706,3.903 3.706,7.482 0,0.521 -0.063,1.106 -0.189,1.692 0.252,-0.065 0.564,-0.13 0.879,-0.13 3.831,0.064 5.836,-0.262 5.713,-1.889 0.188,0.067 2.573,5.336 0.439,7.679 z" />
			<path
   style="fill:none"
   inkscape:connector-curvature="0"
   id="path129"
   d="m 164.397,57.839 c -0.88,-7.679 -4.017,-10.866 -6.338,-12.624 -2.008,-1.497 -4.331,-2.407 -5.9,-2.863 3.264,3.774 9.103,10.477 9.353,11.256 0.186,0.392 1.38,2.084 2.885,4.231 z" />
			<path
   style="fill:none"
   inkscape:connector-curvature="0"
   id="path131"
   d="m 119.269,59.271 c 0.063,0 0.063,-0.067 0,0 z" />
			<path
   style="fill:#ece1c7"
   inkscape:connector-curvature="0"
   id="path133"
   d="m 119.017,58.945 c -1.004,-1.041 -4.329,-4.62 -4.518,-7.158 -3.829,-0.91 -6.59,0.261 -7.47,-0.651 0,0 0.628,4.816 3.267,6.897 0.188,0.129 0.374,0.261 0.564,0.391 2.32,-1.236 5.083,-0.65 8.157,0.521 z" />
			<path
   style="fill:#ec2179"
   inkscape:connector-curvature="0"
   id="path135"
   d="m 119.269,59.204 v 0 c 0.063,0 0.063,0 0,0 z" />
			<path
   style="fill:#f69182"
   inkscape:connector-curvature="0"
   id="path137"
   d="m 119.332,59.011 v 0 c 0,0 0,0.064 0,0 0,0.13 0,0.193 0,0.193 0,0 0.501,-5.595 3.516,-6.505 0.126,-0.586 0.187,-1.172 0.187,-1.692 0,-3.579 -3.702,-7.482 -3.702,-7.482 0.566,1.887 -2.07,3.903 -4.332,6.636 -0.375,0.456 -0.501,0.977 -0.438,1.563 0.252,0.064 0.503,0.129 0.691,0.194 3.7,1.171 4.015,6.116 4.078,7.093 z" />
			<path
   style="fill:#ec2179"
   inkscape:connector-curvature="0"
   id="path139"
   d="m 119.269,59.204 c 0.063,0 0.063,0 0,0 0,0 0,-0.062 0,-0.129 0.063,0.067 0.063,0.067 0,0.129 z" />
			<path
   style="fill:#ec2179"
   inkscape:connector-curvature="0"
   id="path141"
   d="m 119.269,59.204 c 0.063,0 0.063,0 0,0 0,0 0,-0.062 0,-0.129 0.063,0.067 0.063,0.067 0,0.129 z" />
			<path
   style="fill:#eb8065"
   inkscape:connector-curvature="0"
   id="path143"
   d="m 119.017,58.945 c 0.126,0.066 0.188,0.066 0.315,0.13 0,-0.976 -0.378,-5.986 -4.079,-7.091 -0.253,-0.067 -0.503,-0.131 -0.691,-0.197 0.126,2.538 3.451,6.117 4.455,7.158 z" />
			<path
   style="fill:#ec2179"
   inkscape:connector-curvature="0"
   id="path145"
   d="m 123.725,52.634 c -0.312,0 -0.628,0.065 -0.877,0.13 -0.503,2.538 -1.947,5.399 -3.516,6.506 1.945,0.131 3.39,0.585 4.455,1.236 2.263,0.26 4.267,-0.195 5.965,-2.082 2.134,-2.344 -0.251,-7.677 -0.251,-7.677 0.061,1.626 -1.948,1.952 -5.776,1.887 z" />
			<path
   style="fill:#eb1e41"
   inkscape:connector-curvature="0"
   id="path147"
   d="m 119.332,59.204 c 1.568,-1.041 3.076,-3.902 3.516,-6.505 -3.076,0.91 -3.516,6.505 -3.516,6.505 z" />
			<path
   style="fill:#ef5198"
   inkscape:connector-curvature="0"
   id="path149"
   d="m 119.269,59.204 c -2.007,0.652 -4.896,1.563 -8.473,-0.844 -0.688,0.326 -1.318,0.844 -1.946,1.496 -2.133,2.343 0.252,7.678 0.252,7.678 -0.063,-1.627 1.883,-1.953 5.712,-1.888 1.693,0 2.698,-1.17 3.389,-2.603 0.374,-1.819 0.94,-3.446 1.066,-3.839 0,0.067 0,0.067 0,0 z" />
			<path
   style="fill:#e41760"
   inkscape:connector-curvature="0"
   id="path151"
   d="m 119.269,59.204 v 0 c 0,-0.062 -0.126,-0.129 -0.314,-0.324 -3.073,-1.171 -5.835,-1.757 -8.158,-0.52 3.639,2.474 6.526,1.562 8.472,0.844 z" />
			<path
   style="fill:#ec2179"
   inkscape:connector-curvature="0"
   id="path153"
   d="m 119.332,59.011 v 0 c 0,0.064 0,0.064 0,0 0,0.064 0,0 0,0 z" />
			<path
   style="fill:#ec2179"
   inkscape:connector-curvature="0"
   id="path155"
   d="m 119.332,59.011 v 0 c 0,0.064 0,0.064 0,0 0,0.064 0,0 0,0 z" />
			<path
   style="fill:#ec2179"
   inkscape:connector-curvature="0"
   id="path157"
   d="m 119.332,59.011 c -0.127,-0.066 -0.189,-0.066 -0.315,-0.131 0.126,0.131 0.252,0.262 0.315,0.262 0,0 0,0 0,-0.131 0,0.064 0,0.064 0,0 z" />
			<path
   style="fill:#ec2179"
   inkscape:connector-curvature="0"
   id="path159"
   d="m 119.332,59.011 c -0.127,-0.066 -0.189,-0.066 -0.315,-0.131 0.126,0.131 0.252,0.262 0.315,0.262 0,0 0,0 0,-0.131 0,0.064 0,0.064 0,0 z" />
			<path
   style="fill:#ec2179"
   inkscape:connector-curvature="0"
   id="path161"
   d="m 119.332,59.011 c -0.127,-0.066 -0.189,-0.066 -0.315,-0.131 0.126,0.131 0.252,0.262 0.315,0.262 0,0 0,0 0,-0.131 0,0.064 0,0.064 0,0 z" />
			<path
   style="fill:#e62328"
   inkscape:connector-curvature="0"
   id="path163"
   d="m 119.269,59.271 c -0.063,0.585 -0.314,2.277 -1.002,3.773 -0.188,1.302 -0.254,2.667 0.187,3.709 1.066,2.605 5.46,3.189 6.151,5.466 0,0 4.332,-8.524 -0.753,-11.777 -1.507,-0.13 -2.952,-0.586 -4.583,-1.171 0.063,-0.067 0.063,0 0,0 z" />
			<path
   style="fill:#eb1e41"
   inkscape:connector-curvature="0"
   id="path165"
   d="m 123.787,60.442 c -1.065,-0.652 -2.51,-1.105 -4.455,-1.238 1.568,0.652 3.013,1.108 4.455,1.238 z" />
			<path
   style="fill:#eb1e41"
   inkscape:connector-curvature="0"
   id="path167"
   d="m 118.267,63.044 c 0.688,-1.496 0.938,-3.122 1.002,-3.773 -0.126,0.326 -0.692,1.953 -1.002,3.773 z" />
			<path
   style="fill:#ec2179"
   inkscape:connector-curvature="0"
   id="path169"
   d="m 146.509,101.696 -7.533,-0.522 c -0.062,0 3.767,2.735 7.533,0.522 z" />
			<path
   style="fill:#ec2179"
   inkscape:connector-curvature="0"
   id="path171"
   d="m 148.017,100.267 c 0.312,0.064 2.132,-0.395 2.132,-0.395 0,0 -1.064,0.065 -1.565,-0.193 -0.506,-0.261 -1.508,-1.171 -1.885,-1.497 -0.312,-0.325 -1.13,-1.042 -1.571,-0.846 -0.375,0.132 -0.938,0.716 -1.128,0.716 -0.188,0 -0.941,-0.912 -1.381,-0.845 -0.564,0.063 -1.57,0.585 -2.51,0.911 -0.879,0.26 -3.891,0.976 -4.645,1.041 -0.566,0 -2.011,-0.651 -2.011,-0.651 0,0 1.255,0.846 1.819,0.976 0.566,0.195 2.135,0.454 3.328,0.261 1.192,-0.194 2.261,-0.194 2.949,0.065 0.69,0.26 1.695,0.78 2.449,0.78 0.753,0 1.883,-0.521 2.575,-0.521 0.752,-0.065 1.192,0.131 1.444,0.198 z" />
			<path
   style="fill:#010101"
   inkscape:connector-curvature="0"
   id="path173"
   d="m 171.24,68.315 c -0.629,-1.562 -3.075,-5.075 -5.337,-8.264 0,-0.129 0,-0.326 0,-0.454 -0.502,-8.395 -3.391,-12.755 -7.091,-15.488 -3.64,-2.732 -8.097,-3.513 -8.097,-3.513 0,0 -5.022,-12.298 -20.525,-12.298 -0.629,0 -1.254,0 -1.945,0.064 -17.072,1.106 -33.015,9.242 -34.585,26.095 -1.567,16.851 12.807,37.998 19.144,43.464 6.278,5.401 18.579,12.754 18.579,12.754 0,0 -7.531,-5.205 -10.293,-10.672 2.26,2.408 4.832,4.165 7.094,5.076 1.504,0.65 2.885,0.91 3.765,1.106 0.439,0.063 0.817,0.063 1.066,0.129 0.249,0 0.377,0 0.377,0 0,0 -0.128,-0.065 -0.377,-0.193 -0.249,-0.132 -0.564,-0.262 -0.941,-0.457 -0.813,-0.391 -1.946,-1.106 -3.202,-1.951 -2.509,-1.758 -5.521,-4.62 -7.72,-7.939 -0.375,-0.521 -0.69,-1.105 -1.004,-1.625 0.629,-6.443 4.206,-14.968 8.853,-17.31 2.32,-1.171 6.401,-2.212 10.479,-3.449 -0.504,0.456 -1.003,0.846 -1.507,1.3 -1.382,0.719 -2.7,1.432 -3.892,1.954 -0.689,0.326 -1.378,0.65 -1.944,0.976 -0.566,0.324 -1.068,0.519 -1.506,0.715 -0.816,0.39 -1.317,0.653 -1.317,0.653 0,0 0.562,0 1.44,-0.13 0.441,-0.068 1.007,-0.133 1.696,-0.263 0.564,-0.064 1.191,-0.193 1.884,-0.389 -1.006,1.105 -1.884,2.147 -2.573,3.188 -0.565,0.78 -0.941,1.626 -1.192,2.408 -0.251,0.778 -0.314,1.625 -0.065,2.211 0.128,0.324 0.316,0.52 0.503,0.65 0.189,0.131 0.314,0.26 0.504,0.26 0.251,0.066 0.438,0.131 0.438,0.131 0,0 -0.126,-0.064 -0.315,-0.26 -0.123,-0.065 -0.188,-0.262 -0.312,-0.391 -0.061,-0.196 -0.188,-0.326 -0.188,-0.586 -0.063,-0.456 0.128,-1.042 0.501,-1.562 0.378,-0.586 0.88,-1.171 1.508,-1.822 1.816,-1.887 4.396,-3.903 7.092,-6.117 1.758,-0.781 3.642,-1.755 5.398,-2.927 1.819,-1.3 3.453,-2.797 4.833,-4.423 0.191,-0.195 0.312,-0.456 0.501,-0.652 0.503,-0.391 0.881,-0.846 1.259,-1.3 2.069,-2.928 3.073,-5.335 3.513,-6.833 0.064,0.586 0.124,1.172 0.124,1.759 0.254,2.993 0.379,5.984 0.379,8.262 0,1.106 0,2.084 -0.062,2.734 -0.063,0.327 -0.063,0.585 -0.126,0.781 0,0.195 -0.062,0.26 -0.062,0.26 0,0 0.062,-0.065 0.188,-0.195 0.124,-0.13 0.249,-0.391 0.438,-0.651 0.312,-0.585 0.813,-1.561 1.13,-2.669 0.692,-2.341 1.005,-5.529 0.752,-8.719 -0.06,-0.845 -0.188,-1.757 -0.313,-2.601 1.38,0.714 2.952,2.147 3.391,4.619 0.816,4.621 -0.504,10.867 -0.504,10.867 0,0 4.71,-5.596 5.021,-13.145 0.127,0.196 0.253,0.26 0.253,0.26 0,0 11.108,13.471 2.823,22.19 -2.448,2.537 -4.896,3.905 -7.156,4.553 -0.688,0.197 -1.317,0.328 -1.946,0.393 0.253,-1.887 0.315,-3.709 0.379,-5.662 0.062,-2.017 0.125,-4.1 0.438,-6.572 l -0.06,-3.319 c -0.315,2.538 -1.694,7.744 -1.76,9.76 -0.062,2.018 -0.127,3.839 -0.438,5.792 -3.829,0.064 -6.53,-1.562 -6.53,-1.562 0,0 2.512,2.084 6.402,2.277 -0.877,5.076 -3.45,10.801 -11.673,21.018 -0.188,0.195 -2.7,3.58 -9.791,1.953 l -3.77,-0.781 c 3.202,1.758 5.84,2.344 7.976,2.344 4.265,0 6.399,-2.409 6.589,-2.539 8.474,-10.67 11.107,-16.724 11.986,-21.994 0.816,-0.064 1.697,-0.193 2.576,-0.391 1.505,-0.389 3.139,-1.17 4.769,-2.342 8.407,-6.052 5.334,-15.488 4.078,-18.546 z M 158.06,45.281 c 2.321,1.756 5.458,4.879 6.338,12.624 -1.506,-2.146 -2.761,-3.839 -2.823,-4.164 -0.251,-0.781 -6.089,-7.482 -9.351,-11.257 1.505,0.391 3.828,1.299 5.836,2.797 z m 5.022,22.774 c 0.061,-1.562 0,-3.123 -0.254,-4.62 -0.438,-2.473 -1.82,-4.424 -4.078,-5.661 l -2.073,-1.106 -0.312,-3.708 -2.071,6.766 c -0.438,1.431 -1.317,3.646 -3.328,6.443 -0.249,0.325 -0.563,0.716 -1.005,1.041 l -0.124,0.065 -0.062,0.13 -0.128,0.195 c -0.123,0.129 -0.247,0.325 -0.311,0.456 -1.319,1.496 -2.887,2.928 -4.521,4.099 -1.444,0.976 -3.076,1.887 -4.895,2.733 0.188,-0.197 0.376,-0.325 0.562,-0.52 l 5.147,-4.361 -6.401,1.953 c -0.878,0.259 -1.693,0.519 -2.509,0.716 -3.204,0.911 -6.276,1.821 -8.225,2.798 -5.084,2.603 -8.912,11.648 -9.604,18.478 l -0.062,0.457 0.252,0.39 c 0.377,0.651 0.69,1.171 1.065,1.692 0.313,0.453 0.629,0.912 0.942,1.365 l -5.522,-5.92 4.393,8.719 c 0.252,0.519 0.564,1.041 0.879,1.494 -2.572,-1.818 -5.147,-3.642 -7.094,-5.334 -6.275,-5.4 -20.147,-26.288 -18.64,-42.229 1.568,-16.788 18.202,-23.816 33.265,-24.791 0.63,-0.066 1.255,-0.066 1.884,-0.066 14.372,0 19.146,10.932 19.331,11.388 l 0.314,0.714 0.756,0.13 c 0,0 0.121,0 0.31,0.064 1.696,2.604 4.082,5.728 6.404,8.787 l 2.383,2.993 c 1.946,2.408 3.703,4.49 4.898,5.92 0.125,3.124 -0.627,5.986 -1.566,8.33 z" />
		</g></g>
</svg>