<?xml version="1.0" encoding="UTF-8" standalone="no"?>
<!-- Generator: Adobe Illustrator 16.0.0, SVG Export Plug-In . SVG Version: 6.00 Build 0)  -->

<svg
   xmlns:dc="http://purl.org/dc/elements/1.1/"
   xmlns:cc="http://creativecommons.org/ns#"
   xmlns:rdf="http://www.w3.org/1999/02/22-rdf-syntax-ns#"
   xmlns:svg="http://www.w3.org/2000/svg"
   xmlns="http://www.w3.org/2000/svg"
   xmlns:sodipodi="http://sodipodi.sourceforge.net/DTD/sodipodi-0.dtd"
   xmlns:inkscape="http://www.inkscape.org/namespaces/inkscape"
   version="1.1"
   id="Layer_1"
   x="0px"
   y="0px"
   width="135.22398"
   height="164.33879"
   viewBox="0 0 135.22399 164.3388"
   enable-background="new 0 0 255.12 165.98"
   xml:space="preserve"
   sodipodi:docname="nana_flower.svg"
   inkscape:version="0.92.4 (5da689c313, 2019-01-14)"><metadata
   id="metadata186"><rdf:RDF><cc:Work
       rdf:about=""><dc:format>image/svg+xml</dc:format><dc:type
         rdf:resource="http://purl.org/dc/dcmitype/StillImage" /><dc:title></dc:title></cc:Work></rdf:RDF></metadata><defs
   id="defs184">
	
	
	

		<linearGradient
   id="SVGID_3_"
   gradientUnits="userSpaceOnUse"
   x1="72.045898"
   y1="70.291"
   x2="182.1299"
   y2="70.291">
			<stop
   offset="0"
   style="stop-color:#34351A"
   id="stop88" />
			<stop
   offset="0.03"
   style="stop-color:#393A19"
   id="stop90" />
			<stop
   offset="0.08"
   style="stop-color:#F5F6D7"
   id="stop92" />
			<stop
   offset="0.13"
   style="stop-color:#DFDFBC"
   id="stop94" />
			<stop
   offset="0.2"
   style="stop-color:#BF962E"
   id="stop96" />
			<stop
   offset="0.29"
   style="stop-color:#F5D97C"
   id="stop98" />
			<stop
   offset="0.36"
   style="stop-color:#A3822E"
   id="stop100" />
			<stop
   offset="0.4"
   style="stop-color:#544C20"
   id="stop102" />
			<stop
   offset="0.51"
   style="stop-color:#F0C049"
   id="stop104" />
			<stop
   offset="0.6"
   style="stop-color:#D8BE7D"
   id="stop106" />
			<stop
   offset="0.63"
   style="stop-color:#645724"
   id="stop108" />
			<stop
   offset="0.7"
   style="stop-color:#D5BA71"
   id="stop110" />
			<stop
   offset="0.74"
   style="stop-color:#FFFFFF"
   id="stop112" />
			<stop
   offset="0.87"
   style="stop-color:#FBF7EF"
   id="stop114" />
			<stop
   offset="0.91"
   style="stop-color:#B68E2E"
   id="stop116" />
			<stop
   offset="0.97"
   style="stop-color:#584E20"
   id="stop118" />
			<stop
   offset="1"
   style="stop-color:#FFFFFF"
   id="stop120" />
		</linearGradient>
		
		
		
	
			
			
			
			
			
			
			
			
			
			
			
			
			
			
			
			
			
			
			
			
			
			
			
			
		</defs><sodipodi:namedview
   pagecolor="#ffffff"
   bordercolor="#666666"
   borderopacity="1"
   objecttolerance="10"
   gridtolerance="10"
   guidetolerance="10"
   inkscape:pageopacity="0"
   inkscape:pageshadow="2"
   inkscape:window-width="1264"
   inkscape:window-height="641"
   id="namedview182"
   showgrid="false"
   fit-margin-top="0"
   fit-margin-left="0"
   fit-margin-right="0"
   fit-margin-bottom="0"
   inkscape:zoom="2.2264033"
   inkscape:cx="42.802503"
   inkscape:cy="82.059164"
   inkscape:window-x="0"
   inkscape:window-y="0"
   inkscape:window-maximized="0"
   inkscape:current-layer="Layer_1" />
<path
   style="fill:none"
   inkscape:connector-curvature="0"
   id="path127"
   d="m 99.680996,52.984392 -2.385,-2.993 c -2.388,-2.994 -4.773,-6.183 -6.402,-8.787 -0.187,-0.064 -0.315,-0.064 -0.315,-0.064 l -0.752,-0.13 -0.315,-0.714 c -0.188,-0.457 -4.956,-11.388 -19.332,-11.388 -0.626,0 -1.256,0 -1.882,0.066 -15.065,0.975 -31.698,8.003 -33.267,24.791 -1.506,15.941 12.366,36.829 18.642,42.229 1.947,1.692 4.519,3.578 7.094,5.333998 -0.312,-0.519 -0.63,-1.038 -0.881,-1.493998 l -4.393,-8.719 5.524,5.92 c -0.314,-0.453 -0.692,-0.912 -0.943,-1.365 -0.312,-0.521 -0.689,-1.041 -1.067,-1.692 l -0.25,-0.39 0.063,-0.457 c 0.629,-6.83 4.519,-15.812 9.603,-18.478 1.947,-1.043 4.958,-1.887 8.221,-2.798 0.816,-0.262 1.697,-0.457 2.513,-0.716 l 6.4,-1.953 -5.147,4.361 c -0.185,0.129 -0.375,0.323 -0.563,0.52 1.82,-0.846 3.515,-1.757 4.896,-2.733 1.631,-1.171 3.201,-2.603 4.519,-4.099 0.128,-0.131 0.251,-0.327 0.315,-0.456 l 0.123,-0.195 0.062,-0.13 0.127,-0.065 c 0.439,-0.325 0.756,-0.716 1.006,-1.041 1.945,-2.797 2.887,-5.012 3.322,-6.443 l 2.075,-6.766 0.311,3.708 2.075,1.106 c 2.257004,1.237 3.700004,3.188 4.079004,5.661 0.25,1.498 0.312,3.058 0.25,4.62 0.941,-2.278 1.634,-5.14 1.443,-8.265 -1.066,-1.495 -2.824,-3.577 -4.769004,-5.985 z m -29.877,4.555 c -1.698,1.886 -3.702,2.342 -5.965,2.082 5.084,3.252 0.755,11.777 0.755,11.777 -0.629,-2.277 -5.022,-2.861 -6.152,-5.466 -0.438,-1.042 -0.377,-2.407 -0.188,-3.709 -0.628,1.432 -1.695,2.667 -3.389,2.603 -3.829,-0.065 -5.775,0.261 -5.712,1.888 0,0 -2.385,-5.269 -0.252,-7.678 0.628,-0.652 1.259,-1.17 1.946,-1.496 -0.187,-0.13 -0.376,-0.261 -0.564,-0.39 -2.637,-2.018 -3.265,-6.898 -3.265,-6.898 0.879,0.913 3.703,-0.259 7.469,0.652 -0.063,-0.587 0.063,-1.107 0.44,-1.563 2.26,-2.667 4.896,-4.684 4.329,-6.636 0,0 3.706,3.903 3.706,7.482 0,0.521 -0.063,1.106 -0.189,1.692 0.252,-0.065 0.564,-0.13 0.879,-0.13 3.831,0.064 5.836,-0.262 5.713,-1.889 0.188,0.067 2.573,5.336 0.439,7.679 z" /><path
   style="fill:none"
   inkscape:connector-curvature="0"
   id="path129"
   d="m 104.449,57.018392 c -0.88,-7.679 -4.017,-10.866 -6.338004,-12.624 -2.008,-1.497 -4.331,-2.407 -5.9,-2.863 3.264,3.774 9.103004,10.477 9.353004,11.256 0.186,0.392 1.38,2.084 2.885,4.231 z" /><g
   id="g4069"
   transform="matrix(5.7272875,0,0,5.7272875,-612.98585,-249.28019)"><path
     d="m 119.269,59.271 c 0.063,0 0.063,-0.067 0,0 z"
     id="path131"
     inkscape:connector-curvature="0"
     style="fill:none" /><path
     d="m 119.017,58.945 c -1.004,-1.041 -4.329,-4.62 -4.518,-7.158 -3.829,-0.91 -6.59,0.261 -7.47,-0.651 0,0 0.628,4.816 3.267,6.897 0.188,0.129 0.374,0.261 0.564,0.391 2.32,-1.236 5.083,-0.65 8.157,0.521 z"
     id="path133"
     inkscape:connector-curvature="0"
     style="fill:#ece1c7" /><path
     d="m 119.269,59.204 v 0 c 0.063,0 0.063,0 0,0 z"
     id="path135"
     inkscape:connector-curvature="0"
     style="fill:#ec2179" /><path
     d="m 119.332,59.011 v 0 c 0,0 0,0.064 0,0 0,0.13 0,0.193 0,0.193 0,0 0.501,-5.595 3.516,-6.505 0.126,-0.586 0.187,-1.172 0.187,-1.692 0,-3.579 -3.702,-7.482 -3.702,-7.482 0.566,1.887 -2.07,3.903 -4.332,6.636 -0.375,0.456 -0.501,0.977 -0.438,1.563 0.252,0.064 0.503,0.129 0.691,0.194 3.7,1.171 4.015,6.116 4.078,7.093 z"
     id="path137"
     inkscape:connector-curvature="0"
     style="fill:#f69182" /><path
     d="m 119.269,59.204 c 0.063,0 0.063,0 0,0 0,0 0,-0.062 0,-0.129 0.063,0.067 0.063,0.067 0,0.129 z"
     id="path139"
     inkscape:connector-curvature="0"
     style="fill:#ec2179" /><path
     d="m 119.269,59.204 c 0.063,0 0.063,0 0,0 0,0 0,-0.062 0,-0.129 0.063,0.067 0.063,0.067 0,0.129 z"
     id="path141"
     inkscape:connector-curvature="0"
     style="fill:#ec2179" /><path
     d="m 119.017,58.945 c 0.126,0.066 0.188,0.066 0.315,0.13 0,-0.976 -0.378,-5.986 -4.079,-7.091 -0.253,-0.067 -0.503,-0.131 -0.691,-0.197 0.126,2.538 3.451,6.117 4.455,7.158 z"
     id="path143"
     inkscape:connector-curvature="0"
     style="fill:#eb8065" /><path
     d="m 123.725,52.634 c -0.312,0 -0.628,0.065 -0.877,0.13 -0.503,2.538 -1.947,5.399 -3.516,6.506 1.945,0.131 3.39,0.585 4.455,1.236 2.263,0.26 4.267,-0.195 5.965,-2.082 2.134,-2.344 -0.251,-7.677 -0.251,-7.677 0.061,1.626 -1.948,1.952 -5.776,1.887 z"
     id="path145"
     inkscape:connector-curvature="0"
     style="fill:#ec2179" /><path
     d="m 119.332,59.204 c 1.568,-1.041 3.076,-3.902 3.516,-6.505 -3.076,0.91 -3.516,6.505 -3.516,6.505 z"
     id="path147"
     inkscape:connector-curvature="0"
     style="fill:#eb1e41" /><path
     d="m 119.269,59.204 c -2.007,0.652 -4.896,1.563 -8.473,-0.844 -0.688,0.326 -1.318,0.844 -1.946,1.496 -2.133,2.343 0.252,7.678 0.252,7.678 -0.063,-1.627 1.883,-1.953 5.712,-1.888 1.693,0 2.698,-1.17 3.389,-2.603 0.374,-1.819 0.94,-3.446 1.066,-3.839 0,0.067 0,0.067 0,0 z"
     id="path149"
     inkscape:connector-curvature="0"
     style="fill:#ef5198" /><path
     d="m 119.269,59.204 v 0 c 0,-0.062 -0.126,-0.129 -0.314,-0.324 -3.073,-1.171 -5.835,-1.757 -8.158,-0.52 3.639,2.474 6.526,1.562 8.472,0.844 z"
     id="path151"
     inkscape:connector-curvature="0"
     style="fill:#e41760" /><path
     d="m 119.332,59.011 v 0 c 0,0.064 0,0.064 0,0 0,0.064 0,0 0,0 z"
     id="path153"
     inkscape:connector-curvature="0"
     style="fill:#ec2179" /><path
     d="m 119.332,59.011 v 0 c 0,0.064 0,0.064 0,0 0,0.064 0,0 0,0 z"
     id="path155"
     inkscape:connector-curvature="0"
     style="fill:#ec2179" /><path
     d="m 119.332,59.011 c -0.127,-0.066 -0.189,-0.066 -0.315,-0.131 0.126,0.131 0.252,0.262 0.315,0.262 0,0 0,0 0,-0.131 0,0.064 0,0.064 0,0 z"
     id="path157"
     inkscape:connector-curvature="0"
     style="fill:#ec2179" /><path
     d="m 119.332,59.011 c -0.127,-0.066 -0.189,-0.066 -0.315,-0.131 0.126,0.131 0.252,0.262 0.315,0.262 0,0 0,0 0,-0.131 0,0.064 0,0.064 0,0 z"
     id="path159"
     inkscape:connector-curvature="0"
     style="fill:#ec2179" /><path
     d="m 119.332,59.011 c -0.127,-0.066 -0.189,-0.066 -0.315,-0.131 0.126,0.131 0.252,0.262 0.315,0.262 0,0 0,0 0,-0.131 0,0.064 0,0.064 0,0 z"
     id="path161"
     inkscape:connector-curvature="0"
     style="fill:#ec2179" /><path
     d="m 119.269,59.271 c -0.063,0.585 -0.314,2.277 -1.002,3.773 -0.188,1.302 -0.254,2.667 0.187,3.709 1.066,2.605 5.46,3.189 6.151,5.466 0,0 4.332,-8.524 -0.753,-11.777 -1.507,-0.13 -2.952,-0.586 -4.583,-1.171 0.063,-0.067 0.063,0 0,0 z"
     id="path163"
     inkscape:connector-curvature="0"
     style="fill:#e62328" /><path
     d="m 123.787,60.442 c -1.065,-0.652 -2.51,-1.105 -4.455,-1.238 1.568,0.652 3.013,1.108 4.455,1.238 z"
     id="path165"
     inkscape:connector-curvature="0"
     style="fill:#eb1e41" /><path
     d="m 118.267,63.044 c 0.688,-1.496 0.938,-3.122 1.002,-3.773 -0.126,0.326 -0.692,1.953 -1.002,3.773 z"
     id="path167"
     inkscape:connector-curvature="0"
     style="fill:#eb1e41" /></g>
</svg>